<?xml version="1.0" encoding="UTF-8" standalone="no"?>
<!-- Created with Inkscape (http://www.inkscape.org/) -->
<svg
   xmlns:dc="http://purl.org/dc/elements/1.1/"
   xmlns:cc="http://creativecommons.org/ns#"
   xmlns:rdf="http://www.w3.org/1999/02/22-rdf-syntax-ns#"
   xmlns:svg="http://www.w3.org/2000/svg"
   xmlns="http://www.w3.org/2000/svg"
   xmlns:xlink="http://www.w3.org/1999/xlink"
   xmlns:sodipodi="http://sodipodi.sourceforge.net/DTD/sodipodi-0.dtd"
   xmlns:inkscape="http://www.inkscape.org/namespaces/inkscape"
   width="900"
   height="250"
   id="svg2"
   sodipodi:version="0.32"
   inkscape:version="0.46"
   version="1.0"
   sodipodi:docname="griffon-banner.svg"
   inkscape:output_extension="org.inkscape.output.svg.inkscape">
  <defs
     id="defs4">
    <inkscape:perspective
       sodipodi:type="inkscape:persp3d"
       inkscape:vp_x="0 : 526.18109 : 1"
       inkscape:vp_y="0 : 1000 : 0"
       inkscape:vp_z="744.09448 : 526.18109 : 1"
       inkscape:persp3d-origin="372.04724 : 350.78739 : 1"
       id="perspective10" />
    <linearGradient
       id="linearGradient2634"
       spreadMethod="pad"
       gradientTransform="matrix(-26.12538,45.24658,-45.24658,0,504.45703,-412.99023)"
       gradientUnits="userSpaceOnUse"
       y2="0"
       x2="1"
       y1="0"
       x1="0">
      <stop
         id="stop2636"
         offset="0"
         style="stop-opacity:1;stop-color:#7b7979" />
      <stop
         id="stop2638"
         offset="0.65169001"
         style="stop-color:#7b7979;stop-opacity:0" />
      <stop
         id="stop2640"
         offset="1"
         style="stop-color:#7b7979;stop-opacity:0" />
    </linearGradient>
    <linearGradient
       id="linearGradient2612"
       spreadMethod="pad"
       gradientTransform="matrix(-26.73436,46.30127,-46.30127,0,445.36523,-413.54834)"
       gradientUnits="userSpaceOnUse"
       y2="0"
       x2="1"
       y1="0"
       x1="0">
      <stop
         id="stop2614"
         offset="0"
         style="stop-opacity:1;stop-color:#7b7979" />
      <stop
         id="stop2616"
         offset="0.65169001"
         style="stop-color:#7b7979;stop-opacity:0" />
      <stop
         id="stop2618"
         offset="1"
         style="stop-color:#7b7979;stop-opacity:0" />
    </linearGradient>
    <linearGradient
       id="linearGradient2590"
       spreadMethod="pad"
       gradientTransform="matrix(-26.12538,45.24658,-45.24658,0,395.67383,-412.99023)"
       gradientUnits="userSpaceOnUse"
       y2="0"
       x2="1"
       y1="0"
       x1="0">
      <stop
         id="stop2592"
         offset="0"
         style="stop-opacity:1;stop-color:#7b7979" />
      <stop
         id="stop2594"
         offset="0.65169001"
         style="stop-color:#7b7979;stop-opacity:0" />
      <stop
         id="stop2596"
         offset="1"
         style="stop-color:#7b7979;stop-opacity:0" />
    </linearGradient>
    <linearGradient
       id="linearGradient2568"
       spreadMethod="pad"
       gradientTransform="matrix(-26.12538,45.24658,-45.24658,0,349.17383,-412.99023)"
       gradientUnits="userSpaceOnUse"
       y2="0"
       x2="1"
       y1="0"
       x1="0">
      <stop
         id="stop2570"
         offset="0"
         style="stop-opacity:1;stop-color:#7b7979" />
      <stop
         id="stop2572"
         offset="0.65169001"
         style="stop-color:#7b7979;stop-opacity:0" />
      <stop
         id="stop2574"
         offset="1"
         style="stop-color:#7b7979;stop-opacity:0" />
    </linearGradient>
    <linearGradient
       id="linearGradient2546"
       spreadMethod="pad"
       gradientTransform="matrix(-26.12538,45.24658,-45.24658,0,313.2168,-412.99023)"
       gradientUnits="userSpaceOnUse"
       y2="0"
       x2="1"
       y1="0"
       x1="0">
      <stop
         id="stop2548"
         offset="0"
         style="stop-opacity:1;stop-color:#7b7979" />
      <stop
         id="stop2550"
         offset="0.65169001"
         style="stop-color:#7b7979;stop-opacity:0" />
      <stop
         id="stop2552"
         offset="1"
         style="stop-color:#7b7979;stop-opacity:0" />
    </linearGradient>
    <linearGradient
       id="linearGradient2524"
       spreadMethod="pad"
       gradientTransform="matrix(-26.12538,45.24658,-45.24658,0,273.71191,-412.99023)"
       gradientUnits="userSpaceOnUse"
       y2="0"
       x2="1"
       y1="0"
       x1="0">
      <stop
         id="stop2526"
         offset="0"
         style="stop-opacity:1;stop-color:#7b7979" />
      <stop
         id="stop2528"
         offset="0.65169001"
         style="stop-color:#7b7979;stop-opacity:0" />
      <stop
         id="stop2530"
         offset="1"
         style="stop-color:#7b7979;stop-opacity:0" />
    </linearGradient>
    <linearGradient
       id="linearGradient2502"
       spreadMethod="pad"
       gradientTransform="matrix(-27.16345,47.04443,-47.04443,0,216.16309,-413.54834)"
       gradientUnits="userSpaceOnUse"
       y2="0"
       x2="1"
       y1="0"
       x1="0">
      <stop
         id="stop2504"
         offset="0"
         style="stop-opacity:1;stop-color:#7b7979" />
      <stop
         id="stop2506"
         offset="0.65169001"
         style="stop-color:#7b7979;stop-opacity:0" />
      <stop
         id="stop2508"
         offset="1"
         style="stop-color:#7b7979;stop-opacity:0" />
    </linearGradient>
    <radialGradient
       id="radialGradient2464"
       spreadMethod="pad"
       gradientTransform="matrix(93.61012,0,0,93.61012,97.35742,-406.90527)"
       gradientUnits="userSpaceOnUse"
       r="1"
       cy="0"
       cx="0"
       fy="0"
       fx="0">
      <stop
         id="stop2466"
         offset="0"
         style="stop-opacity:1;stop-color:#9b2c2f" />
      <stop
         id="stop2468"
         offset="1"
         style="stop-opacity:1;stop-color:#eb2e2b" />
    </radialGradient>
    <inkscape:perspective
       id="perspective2448"
       inkscape:persp3d-origin="372.04724 : 350.78739 : 1"
       inkscape:vp_z="744.09448 : 526.18109 : 1"
       inkscape:vp_y="0 : 1000 : 0"
       inkscape:vp_x="0 : 526.18109 : 1"
       sodipodi:type="inkscape:persp3d" />
    <radialGradient
       inkscape:collect="always"
       xlink:href="#radialGradient2464"
       id="radialGradient7460"
       gradientUnits="userSpaceOnUse"
       gradientTransform="matrix(93.61012,0,0,93.61012,97.35742,-406.90527)"
       spreadMethod="pad"
       cx="0"
       cy="0"
       fx="0"
       fy="0"
       r="1" />
    <linearGradient
       inkscape:collect="always"
       xlink:href="#linearGradient2502"
       id="linearGradient7462"
       gradientUnits="userSpaceOnUse"
       gradientTransform="matrix(-27.16345,47.04443,-47.04443,0,216.16309,-413.54834)"
       spreadMethod="pad"
       x1="0"
       y1="0"
       x2="1"
       y2="0" />
    <linearGradient
       inkscape:collect="always"
       xlink:href="#linearGradient2524"
       id="linearGradient7464"
       gradientUnits="userSpaceOnUse"
       gradientTransform="matrix(-26.12538,45.24658,-45.24658,0,273.71191,-412.99023)"
       spreadMethod="pad"
       x1="0"
       y1="0"
       x2="1"
       y2="0" />
    <linearGradient
       inkscape:collect="always"
       xlink:href="#linearGradient2546"
       id="linearGradient7466"
       gradientUnits="userSpaceOnUse"
       gradientTransform="matrix(-26.12538,45.24658,-45.24658,0,313.2168,-412.99023)"
       spreadMethod="pad"
       x1="0"
       y1="0"
       x2="1"
       y2="0" />
    <linearGradient
       inkscape:collect="always"
       xlink:href="#linearGradient2568"
       id="linearGradient7468"
       gradientUnits="userSpaceOnUse"
       gradientTransform="matrix(-26.12538,45.24658,-45.24658,0,349.17383,-412.99023)"
       spreadMethod="pad"
       x1="0"
       y1="0"
       x2="1"
       y2="0" />
    <linearGradient
       inkscape:collect="always"
       xlink:href="#linearGradient2590"
       id="linearGradient7470"
       gradientUnits="userSpaceOnUse"
       gradientTransform="matrix(-26.12538,45.24658,-45.24658,0,395.67383,-412.99023)"
       spreadMethod="pad"
       x1="0"
       y1="0"
       x2="1"
       y2="0" />
    <linearGradient
       inkscape:collect="always"
       xlink:href="#linearGradient2612"
       id="linearGradient7472"
       gradientUnits="userSpaceOnUse"
       gradientTransform="matrix(-26.73436,46.30127,-46.30127,0,445.36523,-413.54834)"
       spreadMethod="pad"
       x1="0"
       y1="0"
       x2="1"
       y2="0" />
    <linearGradient
       inkscape:collect="always"
       xlink:href="#linearGradient2634"
       id="linearGradient7474"
       gradientUnits="userSpaceOnUse"
       gradientTransform="matrix(-26.12538,45.24658,-45.24658,0,504.45703,-412.99023)"
       spreadMethod="pad"
       x1="0"
       y1="0"
       x2="1"
       y2="0" />
    <clipPath
       clipPathUnits="userSpaceOnUse"
       id="clipPath9163">
      <path
         id="path9165"
         style="fill:#ffffff;fill-opacity:1;fill-rule:nonzero;stroke:none"
         d="M 101.50781,-405.97949 C 95.58203,-405.97949 88.11523,-407.7373 88.11523,-414.104 C 88.11523,-414.78418 88.27881,-415.52881 88.52295,-416.27783 C 88.52295,-416.27783 88.52295,-416.27783 88.52295,-416.27783 C 88.52295,-416.28027 88.52588,-416.28467 88.52588,-416.28711 C 88.65186,-416.66406 88.80225,-417.0376 88.99023,-417.41064 C 88.99805,-417.43311 89.01172,-417.45215 89.0249,-417.47754 C 89.5376,-418.49219 90.28125,-419.45947 91.2417,-420.2959 C 91.38037,-420.4165 91.50781,-420.53711 91.65234,-420.6499 C 91.90234,-420.84082 92.17188,-421.01074 92.44727,-421.18408 C 92.66162,-421.31445 92.87646,-421.43652 93.10449,-421.55566 C 93.38379,-421.69922 93.67236,-421.83105 93.97559,-421.94922 C 94.24512,-422.05664 94.53223,-422.13428 94.82227,-422.22021 C 95.13086,-422.30713 95.42871,-422.40674 95.76172,-422.4668 C 96.34033,-422.57715 96.95361,-422.63867 97.6001,-422.65234 C 97.66211,-422.65234 97.71582,-422.6709 97.77734,-422.6709 C 106.55908,-422.6709 120.50244,-422.55811 120.50244,-416.41211 C 120.50244,-409.71289 110.29248,-405.97949 101.50781,-405.97949 z M 104.14502,-467.68359 C 109.85498,-467.68359 112.59814,-462.08496 112.59814,-454.72803 C 112.59814,-447.37158 109.85498,-441.77246 104.14502,-441.77246 C 98.54492,-441.77246 95.68945,-447.37158 95.68945,-454.72803 C 95.68945,-462.08496 98.54492,-467.68359 104.14502,-467.68359 z M 159.62109,-431.85547 C 159.38867,-432.4126 158.76514,-432.91309 157.66309,-432.6582 C 151.88867,-431.95752 146.46973,-429.56592 141.01074,-427.63623 C 138.91553,-426.8916 136.75781,-426.22705 134.57715,-425.67725 C 134.53125,-425.71973 134.53418,-425.79248 134.43066,-425.86475 C 143.33203,-429.72998 151.30908,-435.0791 158.33691,-441.15283 C 158.36768,-441.18506 158.40674,-441.21973 158.43066,-441.25098 C 159.24805,-442.17529 160.41309,-444.44336 160.04102,-445.98535 C 159.99023,-446.17432 159.92432,-446.34863 159.83691,-446.50977 C 159.63721,-446.85059 159.0293,-447.5874 157.57861,-447.11377 C 151.8374,-444.91016 146.92334,-440.87646 141.81592,-437.43799 C 139.4082,-435.80615 136.87061,-434.23242 134.21729,-433.00146 C 134.19336,-433.15723 134.14502,-433.30762 134.06445,-433.45801 C 133.92334,-433.67529 133.69385,-433.83887 133.44727,-433.95996 C 141.91504,-439.17871 150.84863,-447.0791 157.2002,-457.89941 C 157.34766,-458.15039 157.40137,-458.45605 157.3252,-458.72607 C 157.2002,-459.25732 156.19775,-461.50244 154.97656,-460.98828 C 154.87305,-460.94141 154.77002,-460.87988 154.69043,-460.79541 C 149.46387,-455.5415 144.42725,-450.0957 139.13721,-445.3999 C 136.94971,-443.45313 134.65381,-441.57959 132.23828,-439.86182 C 132.13184,-440.38525 131.8501,-440.94092 131.27979,-441.11768 C 133.84424,-443.6582 136.354,-446.32715 138.71582,-449.0625 C 144.10498,-455.27588 149.06641,-462.49414 152.42676,-470.96094 C 152.45508,-471.04688 152.48438,-471.14209 152.49512,-471.2373 C 152.55566,-471.62354 152.53271,-472.0127 152.44824,-472.38037 C 152.26416,-473.24365 151.75049,-473.97461 151.21777,-474.28076 C 150.61621,-474.63525 149.98291,-474.47949 149.52148,-473.87305 C 149.48633,-473.83008 149.4541,-473.79492 149.43799,-473.75195 C 146.4082,-468.62842 143.20996,-463.81055 139.85254,-459.46143 C 132.2002,-449.2207 121.6875,-436.896 109.21631,-433.04443 C 108.44189,-432.76563 107.62744,-432.49414 106.80762,-432.22705 C 99.54053,-432.31445 93.27344,-432.01807 93.27344,-434.96484 C 93.27344,-438.14941 94.48438,-439.35742 103.81348,-439.35742 C 113.29346,-439.35742 128.20117,-448.08936 122.08887,-459.59961 C 124.2168,-460.57129 128.02002,-462.96533 129.80225,-465.73242 C 131.08936,-467.73438 131.32129,-469.93018 129.09375,-471.92432 C 125.92822,-460.00732 111.40527,-470.09912 104.14502,-470.09912 C 96.23926,-470.09912 84.4917,-466.25586 84.4917,-454.61816 C 84.4917,-443.52783 93.93506,-441.99268 93.93506,-441.11377 C 93.93506,-439.35742 82.5166,-440.12598 82.5166,-434.41602 C 82.5166,-429.36621 90.75098,-424.86377 90.75098,-423.76611 C 90.75098,-422.77588 78.4541,-418.9375 78.4541,-412.67871 C 78.4541,-411.77686 78.61377,-410.9209 78.8623,-410.09277 C 78.58594,-408.41895 79.34131,-406.50293 81.66406,-403.77881 C 81.84814,-403.56104 82.14844,-403.37891 82.46533,-403.27393 C 83.06641,-403.07666 83.67334,-402.87939 84.27441,-402.68506 C 84.51855,-402.60693 84.76807,-402.58154 84.95898,-402.61377 C 85.81104,-402.74268 86.36768,-402.97607 86.73145,-403.27686 C 87.06982,-403.1709 87.37451,-403.04883 87.73389,-402.95459 C 87.88721,-401.39795 88.40479,-399.5542 91.37061,-398.6792 C 92.7666,-398.2793 93.57813,-398.43896 93.9917,-398.64844 C 94.58057,-398.93408 94.83301,-399.46289 94.86914,-400.12695 C 94.87891,-400.19287 94.84375,-400.28027 94.84668,-400.35254 C 96.19385,-398.52881 97.80029,-396.64453 99.67871,-394.74219 C 100.20898,-394.26953 100.90967,-393.97656 101.74316,-393.85059 C 102.76172,-393.70508 104.05762,-393.84766 104.67236,-394.47754 C 104.72754,-394.53516 104.77197,-394.60547 104.78662,-394.68262 C 104.86035,-394.9834 104.88721,-395.28809 104.89111,-395.59277 C 104.9165,-396.91455 104.37744,-398.21729 103.71973,-399.479 C 104.45215,-399.34473 105.40234,-399.26953 105.84521,-399.64795 C 107.60596,-398.18262 109.45117,-396.80029 111.52051,-395.29199 C 111.7876,-395.09619 112.05078,-394.90234 112.31641,-394.70898 C 114.05811,-393.62012 116.87109,-393.12305 118.27734,-393.64453 C 118.88135,-393.86914 119.1792,-394.26367 119.16602,-394.73047 C 119.16064,-394.88379 119.104,-395.03955 119.04492,-395.20361 C 118.4707,-397.11963 116.35986,-398.79883 114.16309,-400.40234 C 114.41504,-400.53369 114.56836,-400.72852 114.60303,-401.00342 C 114.64355,-401.12549 114.67139,-401.26904 114.68359,-401.42773 C 118.18896,-399.80371 122.19482,-398.37842 126.85254,-397.21387 C 126.93311,-397.19238 127.0083,-397.18262 127.09277,-397.1709 C 127.96924,-397.08887 129.15674,-397.55176 129.67627,-398.19043 C 129.9126,-398.4834 130.01855,-398.79883 129.99561,-399.12207 C 129.97168,-399.36914 129.86426,-399.62646 129.68945,-399.8667 C 129.63867,-399.92578 129.5957,-399.9834 129.53271,-400.03174 C 127.36279,-401.95605 124.63428,-402.98291 122.01074,-404.00146 C 122.24951,-404.11426 122.49121,-404.20557 122.69238,-404.42432 C 122.75684,-404.479 122.78662,-404.53711 122.81885,-404.59717 C 122.8833,-404.78125 122.90576,-404.94873 122.91553,-405.12598 C 123.83594,-404.94873 124.79004,-404.75293 125.77393,-404.5542 C 130.98877,-403.50635 136.55127,-402.5332 140.27246,-405.38916 C 140.75146,-405.80762 140.79834,-406.36865 140.44434,-406.9043 C 140.01465,-407.55225 138.94922,-408.23145 138.02588,-408.22314 C 138.0957,-408.21924 138.15771,-408.2168 138.21387,-408.20703 C 137.20215,-408.33887 136.18994,-408.47949 135.18213,-408.62305 C 132.51025,-409.00977 129.92432,-409.4165 127.40039,-409.81738 C 127.81885,-410.00537 128.23242,-410.23096 128.60791,-410.53125 C 128.7959,-410.66846 128.88721,-410.875 128.87256,-411.08838 C 128.85205,-411.29492 128.7998,-411.63037 128.69385,-411.97266 C 136.05859,-412.32959 143.36963,-413.36816 151.10498,-415.41113 C 152.84961,-415.64551 153.55811,-416.63477 153.96191,-417.2334 C 154.0332,-417.33252 154.10547,-417.43311 154.17529,-417.53418 C 154.25049,-417.63477 154.33789,-417.79443 154.36035,-417.91211 C 154.54443,-418.9375 153.97119,-419.82617 152.91943,-420.21533 C 152.13818,-420.51025 151.12109,-420.48779 150.44482,-420.0835 C 150.12012,-419.98047 142.37939,-418.91895 142.37402,-418.96875 C 139.41357,-418.66797 136.3916,-418.3833 133.35986,-418.09473 C 133.33154,-418.35254 133.25928,-418.65576 133.13037,-418.97119 C 141.38623,-420.64746 149.45703,-423.49756 156.92627,-426.97998 C 158.20801,-427.6499 160.04102,-430.08691 159.69336,-431.62207 C 159.67188,-431.70264 159.65576,-431.78027 159.62109,-431.85547 z" />
    </clipPath>
  </defs>
  <sodipodi:namedview
     id="base"
     pagecolor="#ffffff"
     bordercolor="#666666"
     borderopacity="1.0"
     gridtolerance="10000"
     guidetolerance="10"
     objecttolerance="10"
     inkscape:pageopacity="0"
     inkscape:pageshadow="2"
     inkscape:zoom="5.04"
     inkscape:cx="-53.19631"
     inkscape:cy="125"
     inkscape:document-units="px"
     inkscape:current-layer="layer1"
     showgrid="false"
     units="px"
     showborder="true"
     inkscape:window-width="1680"
     inkscape:window-height="973"
     inkscape:window-x="0"
     inkscape:window-y="25" />
  <metadata
     id="metadata7">
    <rdf:RDF>
      <cc:Work
         rdf:about="">
        <dc:format>image/svg+xml</dc:format>
        <dc:type
           rdf:resource="http://purl.org/dc/dcmitype/StillImage" />
      </cc:Work>
    </rdf:RDF>
  </metadata>
  <g
     inkscape:label="Layer 1"
     inkscape:groupmode="layer"
     id="layer1">
    <g
       transform="matrix(1.9763411,0,0,1.9763411,-146.24679,975.33674)"
       id="g9149">
      <g
         id="g9151">
        <g
           id="g9153">
          <g
             id="g9155">
            <path
               id="path9157"
               style="fill:url(#radialGradient7460);stroke:none"
               d="M 175.68164,-442.06543 C 176.12988,-413.98828 153.73242,-390.86523 125.65576,-390.41797 C 97.57764,-389.96973 74.45361,-412.36719 74.00537,-440.44434 C 73.55713,-468.52246 95.95605,-491.646 124.03467,-492.09424 C 152.11133,-492.54248 175.23486,-470.14355 175.68164,-442.06543 z" />
          </g>
        </g>
      </g>
    </g>
    <g
       id="g2452"
       transform="matrix(1.9763411,0,0,1.9763411,-146.54679,975.63674)"
       clip-path="url(#clipPath9163)"
       style="fill:#ffffff;fill-opacity:1">
      <g
         id="g2454"
         style="fill:#ffffff;fill-opacity:1">
        <g
           id="g2460"
           style="fill:#ffffff;fill-opacity:1">
          <g
             id="g2462"
             style="fill:#ffffff;fill-opacity:1">
            <path
               d="M 175.68164,-442.06543 C 176.12988,-413.98828 153.73242,-390.86523 125.65576,-390.41797 C 97.57764,-389.96973 74.45361,-412.36719 74.00537,-440.44434 C 73.55713,-468.52246 95.95605,-491.646 124.03467,-492.09424 C 152.11133,-492.54248 175.23486,-470.14355 175.68164,-442.06543 z"
               style="fill:#ffffff;fill-opacity:1;stroke:none"
               id="path2470" />
          </g>
        </g>
      </g>
    </g>
    <path
       id="path2476"
       style="fill:#5c595a;fill-opacity:1;fill-rule:nonzero;stroke:none"
       d="M 279.99054,59.500472 C 291.15378,59.500472 297.77182,63.992596 300.81352,73.646548 C 300.81352,73.646548 301.71292,76.495266 301.71292,76.495266 C 301.71292,76.495266 333.11435,76.495266 333.11435,76.495266 C 333.11435,76.495266 331.88977,71.455972 331.88977,71.455972 C 329.11536,60.089125 323.3417,51.092326 314.72416,44.722302 C 305.88756,38.173736 294.19936,34.850241 279.99054,34.850241 C 260.40179,34.850241 245.47791,42.287569 235.63577,56.948976 C 228.0286,68.31102 224.17242,82.39919 224.17242,98.82464 C 224.17242,108.00382 225.78011,116.68408 229.08432,125.35953 C 233.26185,135.68996 239.20245,143.7449 247.27861,150.05703 C 256.70485,157.41717 267.70886,161.14885 279.99054,161.14885 C 294.52263,161.14885 307.13627,155.9822 317.48216,145.78687 C 327.1255,136.10106 332.00363,125.24856 332.00363,113.50919 C 332.00363,113.50919 332.00363,93.597178 332.00363,93.597178 C 332.00363,93.597178 278.02868,93.597178 278.02868,93.597178 C 278.02868,93.597178 278.02868,115.93331 278.02868,115.93331 C 278.02868,115.93331 294.99741,115.93331 301.1397,115.93331 C 299.57446,123.29054 295.2734,129.04104 287.72993,133.21568 C 284.87157,134.751 282.32489,135.5095 279.99054,135.5095 C 270.43791,135.5095 263.67993,131.37733 259.32773,122.87752 C 255.92995,116.38492 254.28555,108.52589 254.28555,98.82464 C 254.28555,88.47298 255.86143,79.837101 258.97454,73.150546 C 263.19743,63.82275 269.87048,59.500472 279.99054,59.500472 z" />
    <path
       id="path2478"
       style="fill:#5c595a;fill-opacity:1;fill-rule:nonzero;stroke:none"
       d="M 374.66384,61.47873 C 380.54171,61.47873 397.62143,61.47873 397.62143,61.47873 C 399.87956,61.47873 402.83249,62.105033 405.7005,66.868311 C 407.58421,70.265147 408.54342,73.743053 408.54342,77.206472 C 408.54342,80.935275 407.7,84.128488 405.9707,86.969479 C 403.92295,90.292024 401.34444,91.782956 397.62143,91.782956 C 397.62143,91.782956 380.54171,91.782956 374.66384,91.782956 C 374.66384,86.041152 374.66384,67.220554 374.66384,61.47873 z M 433.4484,98.909563 C 433.4484,98.909563 433.50052,98.815944 433.50052,98.815944 C 437.20037,92.127472 439.07635,84.638029 439.07635,76.548331 C 439.07635,67.061321 436.3859,58.686002 431.07642,51.650109 C 424.73823,42.844383 415.41237,38.149604 404.17,38.149604 C 404.17,38.149604 350.31664,38.149604 350.31664,38.149604 C 350.31664,38.149604 346.24332,38.149604 346.24332,38.149604 C 346.24332,38.149604 346.24332,159.66371 346.24332,159.66371 C 346.24332,159.66371 374.66384,159.66371 374.66384,159.66371 C 374.66384,159.66371 374.66384,122.15568 374.66384,115.44019 C 379.24764,115.44019 386.54601,115.44019 389.83476,115.44019 C 391.69144,119.90722 408.20954,159.66371 408.20954,159.66371 C 408.20954,159.66371 439.96608,159.66371 439.96608,159.66371 C 439.96608,159.66371 421.98023,118.56971 419.49243,112.88676 C 425.35776,109.32974 429.99947,104.77295 433.4484,98.909563 z" />
    <path
       id="path2480"
       style="fill:#5c595a;fill-opacity:1;fill-rule:nonzero;stroke:none"
       d="M 456.90587,38.149604 C 456.90587,38.149604 456.90587,159.66371 456.90587,159.66371 C 456.90587,159.66371 485.117,159.66371 485.117,159.66371 C 485.117,159.66371 485.117,38.149604 485.117,38.149604 C 485.117,38.149604 481.04465,38.149604 481.04465,38.149604 C 481.04465,38.149604 456.90587,38.149604 456.90587,38.149604 z" />
    <path
       id="path2482"
       style="fill:#5c595a;fill-opacity:1;fill-rule:nonzero;stroke:none"
       d="M 503.15496,38.149604 C 503.15496,38.149604 503.15496,159.66371 503.15496,159.66371 C 503.15496,159.66371 531.5803,159.66371 531.5803,159.66371 C 531.5803,159.66371 531.5803,113.7987 531.5803,106.85835 C 537.76603,106.85835 563.25773,106.85835 563.25773,106.85835 C 563.25773,106.85835 563.25773,85.17842 563.25773,85.17842 C 563.25773,85.17842 537.76603,85.17842 531.5803,85.17842 C 531.5803,79.752177 531.5803,65.09077 531.5803,59.664528 C 538.43767,59.664528 580.99849,59.664528 580.99849,59.664528 C 580.99849,59.664528 580.99849,38.149604 580.99849,38.149604 C 580.99849,38.149604 576.92421,38.149604 576.92421,38.149604 C 576.92421,38.149604 503.15496,38.149604 503.15496,38.149604 z" />
    <path
       id="path2484"
       style="fill:#5c595a;fill-opacity:1;fill-rule:nonzero;stroke:none"
       d="M 595.05482,38.149604 C 595.05482,38.149604 595.05482,159.66371 595.05482,159.66371 C 595.05482,159.66371 623.47824,159.66371 623.47824,159.66371 C 623.47824,159.66371 623.47824,113.7987 623.47824,106.85835 C 629.66589,106.85835 655.15567,106.85835 655.15567,106.85835 C 655.15567,106.85835 655.15567,85.17842 655.15567,85.17842 C 655.15567,85.17842 629.66589,85.17842 623.47824,85.17842 C 623.47824,79.752177 623.47824,65.09077 623.47824,59.664528 C 630.33753,59.664528 672.89642,59.664528 672.89642,59.664528 C 672.89642,59.664528 672.89642,38.149604 672.89642,38.149604 C 672.89642,38.149604 668.82407,38.149604 668.82407,38.149604 C 668.82407,38.149604 595.05482,38.149604 595.05482,38.149604 z" />
    <path
       id="path2486"
       style="fill:#5c595a;fill-opacity:1;fill-rule:nonzero;stroke:none"
       d="M 731.54588,136.33459 C 721.2357,136.33459 707.53257,132.44657 707.53257,98.82464 C 707.53257,65.20271 721.2357,61.314694 731.54588,61.314694 C 737.53666,61.314694 755.76958,61.314694 755.76958,98.82464 C 755.76958,136.33459 737.53666,136.33459 731.54588,136.33459 z M 731.54588,36.829488 C 712.05461,36.829488 697.41154,43.995641 688.02778,58.12146 C 680.8539,68.809928 677.21002,82.508244 677.21002,98.82464 C 677.21002,114.7116 680.99479,128.40993 688.45817,139.54325 C 698.09091,153.88137 712.58729,161.14885 731.54588,161.14885 C 750.96189,161.14885 765.60302,153.93444 775.06013,139.70344 C 775.05627,139.70537 775.05627,139.70826 775.05434,139.70826 C 775.05434,139.70826 775.06592,139.69186 775.06592,139.69186 C 775.06592,139.69765 775.06207,139.69765 775.06013,139.70344 C 782.24174,129.00147 785.88368,115.25007 785.88368,98.82464 C 785.88368,82.508244 782.2398,68.809928 775.05434,58.105056 C 765.68215,43.995641 751.03909,36.829488 731.54588,36.829488 z" />
    <path
       id="path2488"
       style="fill:#5c595a;fill-opacity:1;fill-rule:nonzero;stroke:none"
       d="M 894.16555,38.149604 C 894.16555,38.149604 870.0268,38.149604 870.0268,38.149604 C 870.0268,38.149604 870.0268,81.184254 870.0268,100.05792 C 859.74943,82.611508 833.55712,38.149604 833.55712,38.149604 C 833.55712,38.149604 799.70069,38.149604 799.70069,38.149604 C 799.70069,38.149604 799.70069,159.66371 799.70069,159.66371 C 799.70069,159.66371 827.90988,159.66371 827.90988,159.66371 C 827.90988,159.66371 827.90988,105.11265 827.90988,84.237543 C 838.79519,103.43641 870.67142,159.66371 870.67142,159.66371 C 870.67142,159.66371 898.23984,159.66371 898.23984,159.66371 C 898.23984,159.66371 898.23984,38.149604 898.23984,38.149604 C 898.23984,38.149604 894.16555,38.149604 894.16555,38.149604 z" />
    <g
       transform="matrix(1.9763411,0,0,1.9763411,-146.24679,975.33674)"
       id="g2490">
      <g
         id="g2498"
         style="opacity:1">
        <g
           id="g2500">
          <path
             d="M 208.46924,-380.76563 C 204.77051,-377.07324 200.43848,-375.35547 194.83203,-375.35547 C 189.76318,-375.35547 187.34912,-376.99805 187.2334,-380.52734 C 187.10742,-383.0957 188.19727,-386.39258 190.47607,-390.33594 C 192.61475,-394.04102 195.19824,-397.04736 198.37354,-399.52344 C 202.4707,-402.75586 206.77832,-404.32324 211.55713,-404.32324 C 212.69092,-404.32324 213.7832,-404.04443 214.89307,-403.46973 C 217.92334,-401.83545 218.81445,-399.53516 217.8335,-396.55859 C 214.76025,-396.55859 206.08057,-396.55859 206.08057,-396.55859 C 206.08057,-396.55859 201.47217,-388.57617 201.47217,-388.57617 C 201.47217,-388.57617 228.78418,-388.57617 228.78418,-388.57617 C 228.78418,-388.57617 232.98438,-395.85303 232.98438,-395.85303 C 235.47754,-400.17139 235.35693,-404.17578 232.62451,-407.75635 C 229.58643,-411.60254 224.29395,-413.54834 216.88184,-413.54834 C 210.61377,-413.54834 204.19336,-412.13916 197.80322,-409.36279 C 192.38672,-407.00732 187.67529,-404.00928 183.39844,-400.19824 C 179.86328,-396.95752 177.20361,-393.73926 175.23926,-390.33594 C 171.71777,-384.23633 170.62549,-379.00586 171.99121,-374.79102 C 173.78711,-369.29102 179.75195,-366.50391 189.72168,-366.50391 C 196.96582,-366.50391 203.64063,-367.75781 209.56396,-370.23242 C 215.24609,-372.60059 220.05859,-375.93555 223.86963,-380.14063 C 223.86963,-380.14063 225.31738,-381.74023 225.31738,-381.74023 C 225.31738,-381.74023 209.44727,-381.74023 209.44727,-381.74023 C 209.44727,-381.74023 208.46924,-380.76563 208.46924,-380.76563 z"
             style="fill:url(#linearGradient7462);stroke:none"
             id="path2510" />
        </g>
      </g>
    </g>
    <g
       transform="matrix(1.9763411,0,0,1.9763411,-146.24679,975.33674)"
       id="g2512">
      <g
         id="g2514">
        <g
           id="g2520">
          <g
             id="g2522">
            <path
               id="path2532"
               style="fill:url(#linearGradient7464);stroke:none"
               d="M 263.83789,-382.21289 C 263.0459,-380.8418 261.74854,-379.4707 259.97949,-378.13867 C 257.45654,-376.31348 255.80322,-376.09961 254.78223,-376.09961 C 254.78223,-376.09961 246.13867,-376.09961 243.16455,-376.09961 C 244.2998,-378.06445 248.83984,-385.92773 249.9751,-387.89355 C 252.94922,-387.89355 261.59277,-387.89355 261.59277,-387.89355 C 263.44189,-387.89355 264.36914,-387.34375 264.69531,-386.05371 C 264.9624,-384.95605 264.67383,-383.66211 263.83789,-382.21289 z M 294.35449,-412.99023 C 294.35449,-412.99023 281.36426,-412.99023 281.36426,-412.99023 C 281.36426,-412.99023 264.26172,-397.94629 262.47412,-396.37354 C 260.75,-396.37354 257.16797,-396.37354 254.87061,-396.37354 C 256.16699,-398.61865 264.46436,-412.99023 264.46436,-412.99023 C 264.46436,-412.99023 250.08398,-412.99023 250.08398,-412.99023 C 250.08398,-412.99023 223.95947,-367.74414 223.95947,-367.74414 C 223.95947,-367.74414 253.26953,-367.74414 253.26953,-367.74414 C 259.01611,-367.74414 264.77588,-369.50195 269.92627,-372.83105 C 274.01758,-375.39844 277.13184,-378.47949 279.14453,-381.9668 C 280.86328,-384.94238 281.52539,-387.70117 281.11035,-390.16406 C 280.62695,-392.42285 279.2168,-394.15234 276.92871,-395.49609 C 278.95508,-397.23535 297.33984,-412.99023 297.33984,-412.99023 C 297.33984,-412.99023 294.35449,-412.99023 294.35449,-412.99023 z" />
          </g>
        </g>
      </g>
    </g>
    <g
       transform="matrix(1.9763411,0,0,1.9763411,-146.24679,975.33674)"
       id="g2534">
      <g
         id="g2536">
        <g
           id="g2542">
          <g
             id="g2544">
            <path
               id="path2554"
               style="fill:url(#linearGradient7466);stroke:none"
               d="M 306.07813,-412.99023 C 306.07813,-412.99023 279.95313,-367.74414 279.95313,-367.74414 C 279.95313,-367.74414 294.22949,-367.74414 294.22949,-367.74414 C 294.22949,-367.74414 320.35254,-412.99023 320.35254,-412.99023 C 320.35254,-412.99023 318.29102,-412.99023 318.29102,-412.99023 C 318.29102,-412.99023 306.07813,-412.99023 306.07813,-412.99023 z" />
          </g>
        </g>
      </g>
    </g>
    <g
       transform="matrix(1.9763411,0,0,1.9763411,-146.24679,975.33674)"
       id="g2556">
      <g
         id="g2558">
        <g
           id="g2564">
          <g
             id="g2566">
            <path
               id="path2576"
               style="fill:url(#linearGradient7468);stroke:none"
               d="M 327.94043,-385.41504 C 331.07129,-385.41504 343.96875,-385.41504 343.96875,-385.41504 C 343.96875,-385.41504 348.43457,-393.14844 348.43457,-393.14844 C 348.43457,-393.14844 335.53516,-393.14844 332.40625,-393.14844 C 333.73828,-395.4585 343.86133,-412.99023 343.86133,-412.99023 C 343.86133,-412.99023 341.7998,-412.99023 341.7998,-412.99023 C 341.7998,-412.99023 329.47949,-412.99023 329.47949,-412.99023 C 329.47949,-412.99023 303.35547,-367.74414 303.35547,-367.74414 C 303.35547,-367.74414 342.74219,-367.74414 342.74219,-367.74414 C 342.74219,-367.74414 347.17285,-375.41797 347.17285,-375.41797 C 347.17285,-375.41797 325.63867,-375.41797 322.16797,-375.41797 C 323.25098,-377.29297 326.85742,-383.53906 327.94043,-385.41504 z" />
          </g>
        </g>
      </g>
    </g>
    <g
       transform="matrix(1.9763411,0,0,1.9763411,-146.24679,975.33674)"
       id="g2578">
      <g
         id="g2580">
        <g
           id="g2586">
          <g
             id="g2588">
            <path
               id="path2598"
               style="fill:url(#linearGradient7470);stroke:none"
               d="M 374.43945,-385.41504 C 377.57031,-385.41504 390.46777,-385.41504 390.46777,-385.41504 C 390.46777,-385.41504 394.93457,-393.14844 394.93457,-393.14844 C 394.93457,-393.14844 382.03516,-393.14844 378.90527,-393.14844 C 380.23828,-395.4585 390.36133,-412.99023 390.36133,-412.99023 C 390.36133,-412.99023 388.2998,-412.99023 388.2998,-412.99023 C 388.2998,-412.99023 375.97852,-412.99023 375.97852,-412.99023 C 375.97852,-412.99023 349.85449,-367.74414 349.85449,-367.74414 C 349.85449,-367.74414 389.24121,-367.74414 389.24121,-367.74414 C 389.24121,-367.74414 393.67285,-375.41797 393.67285,-375.41797 C 393.67285,-375.41797 372.1377,-375.41797 368.66797,-375.41797 C 369.75098,-377.29297 373.35645,-383.53906 374.43945,-385.41504 z" />
          </g>
        </g>
      </g>
    </g>
    <g
       transform="matrix(1.9763411,0,0,1.9763411,-146.24679,975.33674)"
       id="g2600">
      <g
         id="g2602">
        <g
           id="g2608">
          <g
             id="g2610">
            <path
               id="path2620"
               style="fill:url(#linearGradient7472);stroke:none"
               d="M 423.70605,-376.03711 C 420.7002,-376.03711 411.55566,-376.03711 419.81152,-390.33594 C 428.06641,-404.63477 437.21191,-404.63477 440.2168,-404.63477 C 443.24805,-404.63477 452.47461,-404.63477 444.21973,-390.33594 C 435.96387,-376.03711 426.73633,-376.03711 423.70605,-376.03711 z M 445.36328,-413.54834 C 435.71191,-413.54834 426.7793,-410.82275 418.81641,-405.44824 C 412.69922,-401.31738 407.87207,-396.23145 404.46777,-390.33594 C 400.9707,-384.27734 399.85352,-379.19336 401.15039,-375.22266 C 402.83008,-369.93262 408.71094,-367.24707 418.63086,-367.24707 C 428.55371,-367.24707 437.53418,-369.93262 445.32813,-375.22852 C 451.20313,-379.19336 455.95801,-384.27734 459.45703,-390.33594 C 462.97754,-396.43555 464.10547,-401.54004 462.80859,-405.50977 C 461.11816,-410.84131 455.24805,-413.54834 445.36328,-413.54834 z" />
          </g>
        </g>
      </g>
    </g>
    <g
       transform="matrix(1.9763411,0,0,1.9763411,-146.24679,975.33674)"
       id="g2622">
      <g
         id="g2624">
        <g
           id="g2630">
          <g
             id="g2632">
            <path
               id="path2642"
               style="fill:url(#linearGradient7474);stroke:none"
               d="M 527.32422,-412.99023 C 527.32422,-412.99023 515.35352,-412.99023 515.35352,-412.99023 C 515.35352,-412.99023 487.2627,-392.03906 477.50098,-384.75879 C 481.98535,-392.52734 493.80078,-412.99023 493.80078,-412.99023 C 493.80078,-412.99023 479.52734,-412.99023 479.52734,-412.99023 C 479.52734,-412.99023 453.4043,-367.74414 453.4043,-367.74414 C 453.4043,-367.74414 470.61914,-367.74414 470.61914,-367.74414 C 470.61914,-367.74414 493.29297,-384.28516 502.35547,-390.89648 C 498.2959,-383.86719 488.98828,-367.74414 488.98828,-367.74414 C 488.98828,-367.74414 503.26172,-367.74414 503.26172,-367.74414 C 503.26172,-367.74414 529.38574,-412.99023 529.38574,-412.99023 C 529.38574,-412.99023 527.32422,-412.99023 527.32422,-412.99023 z" />
          </g>
        </g>
      </g>
    </g>
  </g>
</svg>
